<?xml version="1.0" encoding="UTF-8"?>
<svg version="1.1" viewBox="0 0 2048 921" width="3008" height="1353" xmlns="http://www.w3.org/2000/svg">
<path transform="translate(504,94)" d="m0 0h18l19 1 1 24 3 24 5 23 7 21 9 21 10 20 13 21 10 14 11 14 11 13 11 12 19 19 8 7 13 11 20 15 17 12 25 15 24 13 11 5 16-8 26-14 23-13 27-15 29-16 7-4h2l-4-4-24-16-15-9-23-12-16-7-27-9-25-5-21-2h-19l-22 2-23 4-25 7h-3l-11-33v-3l19-6 28-6 24-3h45l28 4 27 7 22 8 24 11 22 12 19 12 19 13 18 13 5-1 29-14 32-14 34-13 27-9 26-7 30-6 23-3 13-1h36l27 3 8 2-5 28-2 9-27-3h-39l-26 3-30 6-25 7-33 11-32 13-26 12-9 4-1 2 4 2 11 9 15 12 17 13 18 14 19 13 15 10 10 6 8-1 28-11 33-16 18-10 24-15 18-13 14-11 14-12 10-9 7-7 6-5 7-8 7-7 9-11 12-15 14-20 12-21 8-16 9-21 8-25 5-26 2-23v-16l1-1 19-1h18v32l-3 24-7 30-9 26-11 24-11 21-10 16 11 1 15 4 19 7 19 10 15 10 10 8 10 9 10 10 9 12-4 4-16 10-11 7h-2l-6-8-9-10-14-11-14-9-21-10-18-5-14-2-16 1-6 5-7 8-9 10-20 20-8 7-14 12-17 13-18 13-22 14-21 12-27 14-14 6 9 4 19 6 23 5 15 2 13 1h23l17-10 22-15 15-11 13-10 11-9 14-12 12-11 4 2 11 11 7 8 5 5-2 4-12 11-11 9-13 11-17 13-18 13-21 14-25 15-22 12-26 13-33 14-31 11-34 10-40 9-39 6-33 3-21 1h-43l-41-3-37-5-36-7-36-9-32-10-32-12-32-14-34-17-24-14-24-15-17-12-19-14-22-18-10-9-8-7-12-11 6-7 11-11 7-8 4-1 10 10 8 7 15 13 14 11 16 12 21 14 11 4 5 1h25l23-5 24-8 19-8-13-8-20-12-19-13-16-12-10-8-13-11-10-9-13-12-9-9-7-8-10-11-8-10h-21l-16 3-16 6-14 8-9 7-10 9-9 10-12 17h-4l-22-14-7-5 5-9 11-14 9-10 14-14 15-11 16-9 18-7 22-5h3l-14-25-10-21-9-24-7-24-4-20-2-16-1-14v-20zm427 260-25 13-43 24-45 25-2 1v2l23 7 30 7 32 5 28 2h24l27-2 29-3 22-4 1-2-16-11-21-16-17-13-17-14-14-11-13-10zm-162 88-27 13-27 11-25 8-4 1v2l29 13 26 10 36 12 34 9 35 7 35 5 37 3h54l37-3 35-5 34-7 33-9 35-12 21-9-4-2-27-7-20-7-25-11-12-6-8 1-32 8-29 5-28 3-36 2-32-1-29-3-29-5-36-9-33-11-15-6z" fill="#113272"/>
<path transform="translate(155,750)" d="m0 0h70l23 3 15 5 11 6 9 7 6 5 8 10 7 12 5 14 2 11v23l-3 14-5 12-7 12-10 11-11 8-16 8-14 4-7 1h-84v-165zm33 31v104h47l14-4 11-7 8-8 7-14 2-7v-22l-4-12-6-10-7-8-11-7-12-4-8-1z" fill="#010203"/>
<path transform="translate(1149,748)" d="m0 0h10l19 3 15 6 11 6 14 12 9 12 8 16 4 15 1 7v19l-3 16-5 14-9 14-9 10-11 9-16 8-14 4-17 2-16-1-16-4-10-4-11-7-11-9-9-11-7-12-5-14-2-9-1-9v-19l4-17 5-12 8-12 9-10 11-9 16-8 13-4zm-4 32-13 4-10 6-6 5-7 11-4 9-2 10v19l3 12 7 13 9 9 8 5 12 4 8 1h9l14-3 12-6 7-6 7-10 5-11 2-10v-16l-4-16-7-12-9-9-14-7-9-2z" fill="#010102"/>
<path transform="translate(1,750)" d="m0 0h116l1 1v30l-84 1v34l66 1v28l-66 1-1 39h86v31h-119v-165z" fill="#010304"/>
<path transform="translate(1521,750)" d="m0 0h116l1 1v30h-84v36h66v28h-66v40h85v31h-118z" fill="#06CBC1"/>
<path transform="translate(743,751)" d="m0 0h32l17 41 16 39 19 46 15 37v2h-35l-4-8-8-21v-2h-72l-3 10-8 20-1 1h-35l1-5 16-39 17-41 18-44zm16 41-4 10-10 27-10 26h48l-1-5-16-40-6-18z" fill="#010102"/>
<path transform="translate(337,750)" d="m0 0h32l1 1 1 104 4 15 6 9 7 5 9 3 14 1 12-2 10-5 6-7 4-9 2-9 1-105 1-1h32l1 1-1 108-4 18-8 16-11 12-11 7-13 5-10 2h-28l-16-4-14-7-11-10-7-11-5-11-3-12-1-7z" fill="#010203"/>
<path transform="translate(587,747)" d="m0 0 18 1 15 4 14 6 13 9 10 10 7 10 1 4-8 3-23 6-5-1-4-5-11-7-11-4-4-1h-19l-13 4-10 6-8 8-7 14-2 7-1 8v11l3 14 7 14 5 6 11 7 10 4 4 1h21l12-4 10-6 7-6 5-7 10 2 23 6-1 4-7 12-10 11-12 9-16 8-15 4-6 1h-20l-16-3-15-6-11-7-10-9-8-9-8-14-5-13-2-9-1-10v-12l3-19 6-15 7-12 11-12 8-7 14-8 14-5 9-2z" fill="#010202"/>
<path transform="translate(1739,748)" d="m0 0h24l15 4 13 7 10 9 6 7 6 12 1 5-8 3-22 6h-4l-4-9-7-8-6-4-6-2h-18l-9 4-5 6-1 8 3 6 8 6 19 7 20 7 16 8 11 8 7 8 6 12 1 6v12l-3 12-7 11-8 8-10 6-10 4-15 3h-20l-15-3-12-5-13-10-7-8-8-14-3-10 29-8h3l7 14 7 7 10 5 9 2h10l9-2 6-4 5-6 1-9-3-8-8-6-14-6-27-9-16-8-8-6-8-9-4-9-1-4v-16l4-11 8-11 11-9 13-6z" fill="#06CBC1"/>
<path transform="translate(1269,751)" d="m0 0h31l8 10 14 19 16 21 10 14 16 21 14 20 26 36 12 17 4 7h-39l-13-18-15-20-28-38-12-17-10-14-1 107h-33z" fill="#010202"/>
<path transform="translate(1444,750)" d="m0 0h31l1 1v134l-1 31h-31l-10-13-39-54-14-19-26-36-14-19-10-14-6-8v-2h38l28 38 16 21 14 19 13 18 8 11 1-107z" fill="#06CBC1"/>
<path transform="translate(848,750)" d="m0 0h136v31l-51 1-1 134h-33v-135h-51z" fill="#010404"/>
<path transform="translate(1850,750)" d="m0 0h136v31l-51 1-1 134h-33v-135h-51z" fill="#06CBC1"/>
<path transform="translate(621,61)" d="m0 0h11l19 3 15 5 8 4 1 3-7 16-8 12-11 12-12 9-16 8-15 4h-15l-10-3-9-6-6-9-2-7v-10l3-10 7-11 8-7 10-6 15-5z" fill="#06CBC1"/>
<path transform="translate(1262,61)" d="m0 0h12l14 2 14 5 9 5 10 9 6 9 3 7 1 10-2 10-5 8-8 7-7 3-5 1h-15l-15-4-16-8-11-8-10-10-9-13-7-14-1-7 14-6 14-4z" fill="#06CBC1"/>
<path transform="translate(1008,750)" d="m0 0h31l1 1v165h-33v-165z" fill="#010202"/>
<path transform="translate(1482,176)" d="m0 0h14l1 5v15l-3 16-6 16-7 11-9 10-8 7-12 6-12 2-10-2-9-6-6-10-2-7v-11l4-13 9-13 10-9 13-8 16-6z" fill="#06CBC1"/>
<path transform="translate(399,176)" d="m0 0h13l17 3 12 4 15 8 11 9 9 12 4 9 2 10-1 11-4 9-7 8-8 4-9 1-10-2-12-6-11-9-9-12-8-16-4-14-1-6v-21z" fill="#06CBC1"/>
<path transform="translate(447,1)" d="m0 0 6 1 15 8 14 12 8 11 6 12 2 8v16l-4 10-7 8-7 4-11 1-9-3-10-9-7-11-5-15-1-7v-16l3-14 5-13z" fill="#06CBC1"/>
<path transform="translate(1444,1)" d="m0 0h4l6 13 3 12 1 17-3 17-5 12-6 9-8 7-6 3-10 1-9-3-7-5-6-10-2-11 1-11 4-12 5-9 8-10 10-9 15-9z" fill="#06CBC1"/>
<path transform="translate(2011,857)" d="m0 0h12l10 4 8 7 5 8 2 7v10l-4 11-8 9-8 4-9 2-10-1-9-4-8-7-5-10-1-5v-9l4-11 7-8 8-5z" fill="#010102"/>
<path transform="translate(1016,656)" d="m0 0h15l9 4 8 7 4 6 2 6v15l-4 9-7 8-9 5-4 1h-13l-10-4-8-7-5-9-1-4v-14l6-12 9-8z" fill="#06CBC1"/>
</svg>
